<svg width="25" height="24" viewBox="0 0 25 24" fill="none" xmlns="http://www.w3.org/2000/svg">
<g clip-path="url(#clip0_3782_42606)">
<path fill-rule="evenodd" clip-rule="evenodd" d="M4.89244 14.2238C4.48144 13.779 3.89269 13.5 3.23944 13.5C1.99744 13.5 0.989441 14.508 0.989441 15.75V21C0.989441 22.242 1.99744 23.25 3.23944 23.25C4.04944 23.25 4.75969 22.8218 5.15569 22.179L6.19594 22.872C6.56494 23.1187 6.99919 23.25 7.44394 23.25H14.4894C14.6432 23.25 14.7932 23.2027 14.9192 23.115L22.6914 17.6828C22.7199 17.6625 22.7469 17.6408 22.7724 17.6168C23.6814 16.7715 23.7332 15.3465 22.8872 14.4375C22.0652 13.5533 20.6957 13.4797 19.7844 14.2537C19.7867 14.2515 12.8012 18 12.8012 18H9.61444C9.40744 18 9.23944 18 9.23944 17.625C9.23944 17.25 9.51544 17.25 9.61444 17.25H12.2394C13.4814 17.25 14.4894 16.242 14.4894 15C14.4894 13.758 13.4814 12.75 12.2394 12.75H7.69819C6.98719 12.75 5.81719 13.224 4.89244 14.2238ZM3.98944 15.744C3.98644 15.333 3.65194 15 3.23944 15C2.82544 15 2.48944 15.336 2.48944 15.75V21C2.48944 21.414 2.82544 21.75 3.23944 21.75C3.65344 21.75 3.98944 21.414 3.98944 21V15.744ZM5.48944 20.5988L7.02769 21.624C7.15069 21.7065 7.29544 21.75 7.44394 21.75H14.2532C14.2532 21.75 21.7817 16.488 21.7832 16.4865C22.0547 16.2023 22.0607 15.7507 21.7892 15.459C21.5072 15.156 21.0324 15.1388 20.7287 15.4208C20.6822 15.4643 20.6297 15.5017 20.5727 15.5325L13.3442 19.4108C13.2354 19.4692 13.1132 19.5 12.9894 19.5H9.61444C8.57869 19.5 7.73944 18.75 7.73944 17.625C7.73944 17.25 7.93744 16.6508 8.28844 16.299C8.64019 15.9473 9.11719 15.75 9.61444 15.75H12.2394C12.6534 15.75 12.9894 15.414 12.9894 15C12.9894 14.586 12.6534 14.25 12.2394 14.25H7.69819C7.10569 14.25 6.09394 14.847 5.48944 15.9352V20.5988ZM9.32269 10.5C9.32269 8.8905 10.6299 7.58325 12.2394 7.58325C13.8489 7.58325 15.1562 8.8905 15.1562 10.5C15.1562 10.914 15.4922 11.25 15.9062 11.25C16.3202 11.25 16.6562 10.914 16.6562 10.5C16.6562 8.0625 14.6769 6.08325 12.2394 6.08325C9.80194 6.08325 7.82269 8.0625 7.82269 10.5C7.82269 10.914 8.15869 11.25 8.57269 11.25C8.98669 11.25 9.32269 10.914 9.32269 10.5ZM20.0019 10.5C20.0019 10.323 19.9959 10.1468 19.9839 9.96975C19.9839 9.9705 20.7212 9.51675 20.7212 9.51675C20.9889 9.35175 21.1254 9.03825 21.0639 8.73C20.9267 8.046 20.7099 7.37925 20.4189 6.74475C20.2877 6.45975 19.9929 6.28575 19.6794 6.30975L18.8162 6.3765C18.6287 6.07725 18.4202 5.79075 18.1937 5.51925L18.5237 4.719C18.6429 4.42875 18.5694 4.09425 18.3384 3.88125C17.8247 3.408 17.2577 2.99625 16.6494 2.65425C16.3757 2.5005 16.0352 2.5335 15.7959 2.7375L15.1367 3.2985C14.8082 3.1665 14.4714 3.057 14.1287 2.97075L13.9254 2.12925C13.8512 1.824 13.5954 1.5975 13.2834 1.56075C12.5897 1.47975 11.8892 1.47975 11.1954 1.56075C10.8834 1.5975 10.6277 1.824 10.5534 2.12925L10.3502 2.97075C10.0074 3.057 9.67069 3.1665 9.34219 3.2985L8.68294 2.7375C8.44369 2.5335 8.10319 2.5005 7.82944 2.65425C7.22119 2.99625 6.65419 3.408 6.14044 3.88125C5.90944 4.09425 5.83594 4.42875 5.95519 4.719L6.28519 5.51925C6.05869 5.79075 5.85019 6.07725 5.66269 6.3765L4.79944 6.30975C4.48594 6.28575 4.19119 6.45975 4.05994 6.74475C3.76894 7.37925 3.55219 8.046 3.41494 8.73C3.35344 9.03825 3.48994 9.35175 3.75769 9.51675L4.49494 9.9705C4.48294 10.1467 4.47694 10.323 4.47694 10.5C4.47694 10.914 4.81294 11.25 5.22694 11.25C5.64094 11.25 5.97694 10.914 5.97694 10.5C5.97694 10.2247 5.99494 9.9495 6.03169 9.67575C6.07069 9.3825 5.93269 9.09375 5.68069 8.9385L5.00494 8.523C5.06719 8.29425 5.14069 8.0685 5.22394 7.84725L6.01594 7.908C6.31069 7.93125 6.59194 7.77825 6.73294 7.51725C6.99544 7.03275 7.32094 6.58425 7.70119 6.1845C7.90519 5.97 7.96369 5.65575 7.85119 5.382L7.54894 4.64775C7.73344 4.5 7.92544 4.3605 8.12344 4.23075L8.72794 4.74525C8.95294 4.9365 9.27019 4.97775 9.53719 4.85025C10.0352 4.6125 10.5624 4.4415 11.1047 4.341C11.3957 4.28775 11.6282 4.068 11.6979 3.78L11.8839 3.00825C12.1209 2.997 12.3579 2.997 12.5942 3.00825C12.5949 3.00825 12.7809 3.78 12.7809 3.78C12.8507 4.068 13.0832 4.28775 13.3742 4.341C13.9164 4.4415 14.4437 4.6125 14.9417 4.85025C15.2087 4.97775 15.5259 4.9365 15.7509 4.74525L16.3554 4.23075C16.5534 4.3605 16.7454 4.5 16.9299 4.64775L16.6277 5.382C16.5152 5.65575 16.5737 5.97 16.7777 6.1845C17.1579 6.58425 17.4834 7.03275 17.7459 7.51725C17.8869 7.77825 18.1682 7.93125 18.4629 7.908L19.2549 7.84725C19.3382 8.06925 19.4117 8.29425 19.4739 8.523L18.7982 8.9385C18.5462 9.09375 18.4082 9.3825 18.4472 9.67575C18.4839 9.9495 18.5019 10.2247 18.5019 10.5C18.5019 10.914 18.8379 11.25 19.2519 11.25C19.6659 11.25 20.0019 10.914 20.0019 10.5Z" fill="#0E0E0E"/>
</g>
<defs>
<clipPath id="clip0_3782_42606">
<rect width="24" height="24" fill="white" transform="translate(0.239441)"/>
</clipPath>
</defs>
</svg>
