<svg width="30" height="22" viewBox="0 0 30 22" fill="none" xmlns="http://www.w3.org/2000/svg">
<path d="M2.51356 3.61974C2.07731 3.61974 1.72466 3.9737 1.72466 4.40864C1.72466 4.84489 2.07731 5.19885 2.51356 5.19885H8.48634C8.92258 5.19885 9.27654 4.84489 9.27654 4.40864C9.27654 3.9724 8.92258 3.61974 8.48634 3.61974H2.51356ZM5.18718 7.16703C4.75094 7.16703 4.39828 7.52099 4.39828 7.95593C4.39828 8.39218 4.75224 8.74614 5.18718 8.74614H10.7708C11.207 8.74614 11.561 8.39218 11.561 7.95593C11.561 7.52099 11.207 7.16703 10.7708 7.16703H5.18718ZM24.2748 3.55421C24.7489 3.55421 25.1355 3.93689 25.1486 4.41493L25.1499 8.78375H19.2293V3.5526L24.2748 3.55421ZM27.9632 11.3372V11.3385C28.2375 11.4887 28.4229 11.7813 28.4229 12.1157C28.4229 12.1209 28.4412 16.7497 28.4412 16.7497C28.4268 17.229 28.0389 17.613 27.5622 17.613H27.2108C26.8595 16.0718 25.4802 14.9237 23.8331 14.9237C22.1861 14.9237 20.8081 16.0731 20.4553 17.613H19.2289V10.3626L26.2114 10.3613L27.9632 11.3372ZM9.22565 16.5029C10.2666 16.5029 11.1104 17.3466 11.1104 18.3876C11.1104 19.4286 10.2666 20.2736 9.22565 20.2736C8.18337 20.2736 7.33963 19.4299 7.33963 18.3876C7.33963 17.3466 8.18467 16.5029 9.22565 16.5029ZM23.8344 16.5029C24.8754 16.5029 25.7192 17.3466 25.7192 18.3876C25.7192 19.4286 24.8754 20.2736 23.8331 20.2736C22.7921 20.2736 21.9484 19.4299 21.9484 18.3876C21.9484 17.3466 22.7921 16.5029 23.8331 16.5029H23.8344ZM5.05511 0.00123469C4.62017 0.00123469 4.26621 0.35389 4.26621 0.790137C4.26621 1.22638 4.62017 1.57904 5.05641 1.57904C16.7619 1.58035 16.7619 1.58035 16.7619 1.58035C17.2438 1.58035 17.6357 1.96433 17.65 2.44237V17.6142H12.6031C12.2505 16.073 10.8725 14.9236 9.22535 14.9236C7.57833 14.9236 6.19907 16.073 5.84759 17.6129H4.00858C3.52662 17.6129 3.13348 17.2289 3.1191 16.7496V12.2932L6.37786 12.2945C6.81411 12.2932 7.16676 11.9405 7.16676 11.5043C7.16676 11.068 6.81411 10.7141 6.37786 10.7141L0.787599 10.7154C0.352656 10.7154 0 11.068 0 11.5043C0 11.9392 0.352656 12.2932 0.788903 12.2932H1.54123V16.7235C1.54123 18.0871 2.6462 19.1921 4.00978 19.1921H5.85401C6.2171 20.7176 7.58853 21.8526 9.22509 21.8526C10.8603 21.8526 12.2305 20.7189 12.5935 19.1947L20.4628 19.1934C20.8246 20.7176 22.196 21.8526 23.8325 21.8526C25.4691 21.8526 26.8392 20.7189 27.2036 19.1947L27.5615 19.1921C28.9094 19.1921 30 18.0871 30 16.7235V12.1129C30 11.1947 29.4985 10.3954 28.754 9.97092L26.7086 8.83067V4.44078C26.7086 3.0772 25.6167 1.97222 24.2687 1.97222L19.1773 1.97353C18.9475 0.847651 17.9522 0 16.7597 0L5.05511 0.00123469Z" fill="#132A96"/>
</svg>
