<svg width="16" height="16" viewBox="0 0 16 16" fill="none" xmlns="http://www.w3.org/2000/svg">
<path fill-rule="evenodd" clip-rule="evenodd" d="M1.314 6.49044e-05C0.588413 6.49044e-05 0 0.588478 0 1.31407V14.686C0 15.4116 0.588413 16 1.314 16H10.9142C11.0573 16 11.1953 15.9771 11.324 15.9348C11.4027 15.9678 11.4882 15.9856 11.5788 15.9856H14.5319C14.8943 15.9856 15.1889 15.6918 15.1889 15.3286V7.88481C15.1889 7.52244 14.8943 7.22782 14.5319 7.22782H12.2282V1.314C12.2282 0.588412 11.6397 0 10.9142 0L1.314 6.49044e-05ZM1.314 1.31407H10.9142V14.686H1.314V1.31407ZM3.13514 3.31471C2.77277 3.31471 2.47899 3.6085 2.47899 3.97085C2.47899 4.33407 2.77279 4.62784 3.13514 4.62784H6.10429C6.46751 4.62784 6.76128 4.33405 6.76128 3.97085C6.76128 3.60848 6.46749 3.31471 6.10429 3.31471H3.13514ZM2.45019 6.85195C2.45019 6.48873 2.74483 6.19496 3.10718 6.19496H9.46966C9.83287 6.19496 10.1266 6.48875 10.1266 6.85195C10.1266 7.21432 9.83285 7.50809 9.46966 7.50809H3.10718C2.74481 7.50809 2.45019 7.2143 2.45019 6.85195ZM12.2357 14.6724V8.54185H13.8748V14.6724H12.2357Z" fill="#2A3B8F"/>
</svg>
