<svg width="22" height="31" viewBox="0 0 22 31" fill="none" xmlns="http://www.w3.org/2000/svg">
<path d="M10.7447 0.75C8.6884 0.751791 6.67895 1.364 4.971 2.50904C3.26305 3.65409 1.93349 5.28041 1.15081 7.18189C0.36814 9.08338 0.167596 11.1744 0.574597 13.19C0.981599 15.2056 1.97782 17.055 3.43701 18.5037V29.596C3.4344 29.8001 3.48744 30.001 3.59044 30.1772C3.69345 30.3534 3.84251 30.4982 4.02162 30.596C4.198 30.6943 4.39659 30.746 4.59854 30.746C4.80049 30.746 4.99908 30.6943 5.17546 30.596L10.7447 27.3191L16.3139 30.596C16.4916 30.6983 16.6934 30.7514 16.8985 30.7498C17.0989 30.7533 17.2963 30.7 17.4677 30.596C17.6468 30.4982 17.7959 30.3534 17.8989 30.1772C18.0019 30.001 18.0549 29.8001 18.0523 29.596V18.5037C19.5115 17.055 20.5077 15.2056 20.9147 13.19C21.3217 11.1744 21.1212 9.08338 20.3385 7.18189C19.5558 5.28041 18.2263 3.65409 16.5183 2.50904C14.8104 1.364 12.8009 0.751791 10.7447 0.75ZM15.7446 27.5806L11.3293 24.9806C11.151 24.8795 10.9496 24.8263 10.7447 24.8263C10.5397 24.8263 10.3383 24.8795 10.16 24.9806L5.74469 27.5806V20.2268C7.275 21.074 8.99549 21.5185 10.7447 21.5185C12.4938 21.5185 14.2143 21.074 15.7446 20.2268V27.5806ZM15.7446 17.3807C15.4859 17.5978 15.2135 17.7982 14.9293 17.9807L14.7139 18.1038C13.4771 18.777 12.0913 19.1297 10.6831 19.1297C9.27494 19.1297 7.88919 18.777 6.65238 18.1038L6.43699 17.9807C6.15273 17.7982 5.88039 17.5978 5.62161 17.3807C4.31871 16.3329 3.37306 14.9067 2.91512 13.2987C2.45718 11.6908 2.50953 9.9803 3.06494 8.40334C3.62034 6.82637 4.65144 5.46063 6.01597 4.49453C7.3805 3.52843 9.01121 3.00959 10.6831 3.00959C12.355 3.00959 13.9857 3.52843 15.3503 4.49453C16.7148 5.46063 17.7459 6.82637 18.3013 8.40334C18.8567 9.9803 18.9091 11.6908 18.4511 13.2987C17.9932 14.9067 17.0475 16.3329 15.7446 17.3807Z" fill="#132A96"/>
<path d="M13.6675 7.36584L9.8521 12.4581L7.6675 10.3197C7.44283 10.1919 7.18177 10.1433 6.92618 10.1816C6.67059 10.2199 6.43526 10.3429 6.25791 10.5309C6.08055 10.7189 5.97145 10.961 5.94809 11.2184C5.92472 11.4758 5.98844 11.7336 6.12905 11.9504L9.20595 15.0273C9.42213 15.2438 9.71542 15.3655 10.0213 15.3658H10.0983C10.2635 15.3515 10.4241 15.3032 10.5697 15.2237C10.7153 15.1443 10.8429 15.0355 10.9444 14.9043L15.5598 8.75045C15.7434 8.50563 15.8222 8.19791 15.7789 7.89496C15.7357 7.59202 15.5738 7.31868 15.329 7.13507C15.0842 6.95146 14.7765 6.87262 14.4735 6.9159C14.1706 6.95918 13.8972 7.12102 13.7136 7.36584H13.6675Z" fill="#132A96"/>
</svg>
